<?xml version="1.0" encoding="UTF-8" standalone="no"?>
<!DOCTYPE svg PUBLIC "-//W3C//DTD SVG 1.1//EN"
 "http://www.w3.org/Graphics/SVG/1.1/DTD/svg11.dtd">
<!-- Generated by graphviz version 12.1.2 (20240928.0832)
 -->
<!-- Pages: 1 -->
<svg width="1292pt" height="332pt"
 viewBox="0.00 0.00 1292.25 332.00" xmlns="http://www.w3.org/2000/svg" xmlns:xlink="http://www.w3.org/1999/xlink">
<g id="graph0" class="graph" transform="scale(1 1) rotate(0) translate(4 328)">
<polygon fill="white" stroke="none" points="-4,4 -4,-328 1288.25,-328 1288.25,4 -4,4"/>
<!-- [root] aws_instance.Terraform_EC2 (expand) -->
<g id="node1" class="node">
<title>[root] aws_instance.Terraform_EC2 (expand)</title>
<polygon fill="none" stroke="black" points="312,-108 134,-108 134,-72 312,-72 312,-108"/>
<text text-anchor="middle" x="223" y="-84.95" font-family="Times New Roman,serif" font-size="14.00">aws_instance.Terraform_EC2</text>
</g>
<!-- [root] provider[&quot;registry.terraform.io/hashicorp/aws&quot;] -->
<g id="node7" class="node">
<title>[root] provider[&quot;registry.terraform.io/hashicorp/aws&quot;]</title>
<polygon fill="none" stroke="black" points="327,-36 62.57,-18 327,0 591.43,-18 327,-36"/>
<text text-anchor="middle" x="327" y="-12.95" font-family="Times New Roman,serif" font-size="14.00">provider[&quot;registry.terraform.io/hashicorp/aws&quot;]</text>
</g>
<!-- [root] aws_instance.Terraform_EC2 (expand)&#45;&gt;[root] provider[&quot;registry.terraform.io/hashicorp/aws&quot;] -->
<g id="edge1" class="edge">
<title>[root] aws_instance.Terraform_EC2 (expand)&#45;&gt;[root] provider[&quot;registry.terraform.io/hashicorp/aws&quot;]</title>
<path fill="none" stroke="black" d="M248.98,-71.52C262.7,-62.28 279.67,-50.85 294.28,-41.02"/>
<polygon fill="black" stroke="black" points="295.89,-44.16 302.23,-35.67 291.98,-38.35 295.89,-44.16"/>
</g>
<!-- [root] aws_network_interface_sg_attachment.sg_attachment (expand) -->
<g id="node2" class="node">
<title>[root] aws_network_interface_sg_attachment.sg_attachment (expand)</title>
<polygon fill="none" stroke="black" points="310,-180 0,-180 0,-144 310,-144 310,-180"/>
<text text-anchor="middle" x="155" y="-156.95" font-family="Times New Roman,serif" font-size="14.00">aws_network_interface_sg_attachment.sg_attachment</text>
</g>
<!-- [root] aws_network_interface_sg_attachment.sg_attachment (expand)&#45;&gt;[root] aws_instance.Terraform_EC2 (expand) -->
<g id="edge2" class="edge">
<title>[root] aws_network_interface_sg_attachment.sg_attachment (expand)&#45;&gt;[root] aws_instance.Terraform_EC2 (expand)</title>
<path fill="none" stroke="black" d="M171.81,-143.7C179.88,-135.39 189.7,-125.28 198.58,-116.14"/>
<polygon fill="black" stroke="black" points="200.87,-118.8 205.33,-109.19 195.85,-113.92 200.87,-118.8"/>
</g>
<!-- [root] aws_security_group.terraform_SG (expand) -->
<g id="node3" class="node">
<title>[root] aws_security_group.terraform_SG (expand)</title>
<polygon fill="none" stroke="black" points="602.12,-108 397.88,-108 397.88,-72 602.12,-72 602.12,-108"/>
<text text-anchor="middle" x="500" y="-84.95" font-family="Times New Roman,serif" font-size="14.00">aws_security_group.terraform_SG</text>
</g>
<!-- [root] aws_network_interface_sg_attachment.sg_attachment (expand)&#45;&gt;[root] aws_security_group.terraform_SG (expand) -->
<g id="edge3" class="edge">
<title>[root] aws_network_interface_sg_attachment.sg_attachment (expand)&#45;&gt;[root] aws_security_group.terraform_SG (expand)</title>
<path fill="none" stroke="black" d="M241.17,-143.52C290.35,-133.54 352.14,-121 403.02,-110.68"/>
<polygon fill="black" stroke="black" points="403.45,-114.16 412.55,-108.74 402.05,-107.3 403.45,-114.16"/>
</g>
<!-- [root] aws_security_group.terraform_SG (expand)&#45;&gt;[root] provider[&quot;registry.terraform.io/hashicorp/aws&quot;] -->
<g id="edge4" class="edge">
<title>[root] aws_security_group.terraform_SG (expand)&#45;&gt;[root] provider[&quot;registry.terraform.io/hashicorp/aws&quot;]</title>
<path fill="none" stroke="black" d="M456.79,-71.52C431.75,-61.38 400.18,-48.61 374.44,-38.2"/>
<polygon fill="black" stroke="black" points="375.8,-34.97 365.21,-34.46 373.17,-41.46 375.8,-34.97"/>
</g>
<!-- [root] aws_vpc_security_group_egress_rule.allow_all_traffic_ipv4 (expand) -->
<g id="node4" class="node">
<title>[root] aws_vpc_security_group_egress_rule.allow_all_traffic_ipv4 (expand)</title>
<polygon fill="none" stroke="black" points="671.88,-180 328.12,-180 328.12,-144 671.88,-144 671.88,-180"/>
<text text-anchor="middle" x="500" y="-156.95" font-family="Times New Roman,serif" font-size="14.00">aws_vpc_security_group_egress_rule.allow_all_traffic_ipv4</text>
</g>
<!-- [root] aws_vpc_security_group_egress_rule.allow_all_traffic_ipv4 (expand)&#45;&gt;[root] aws_security_group.terraform_SG (expand) -->
<g id="edge5" class="edge">
<title>[root] aws_vpc_security_group_egress_rule.allow_all_traffic_ipv4 (expand)&#45;&gt;[root] aws_security_group.terraform_SG (expand)</title>
<path fill="none" stroke="black" d="M500,-143.7C500,-136.41 500,-127.73 500,-119.54"/>
<polygon fill="black" stroke="black" points="503.5,-119.62 500,-109.62 496.5,-119.62 503.5,-119.62"/>
</g>
<!-- [root] aws_vpc_security_group_ingress_rule.allow_http (expand) -->
<g id="node5" class="node">
<title>[root] aws_vpc_security_group_ingress_rule.allow_http (expand)</title>
<polygon fill="none" stroke="black" points="975.62,-180 690.38,-180 690.38,-144 975.62,-144 975.62,-180"/>
<text text-anchor="middle" x="833" y="-156.95" font-family="Times New Roman,serif" font-size="14.00">aws_vpc_security_group_ingress_rule.allow_http</text>
</g>
<!-- [root] aws_vpc_security_group_ingress_rule.allow_http (expand)&#45;&gt;[root] aws_security_group.terraform_SG (expand) -->
<g id="edge6" class="edge">
<title>[root] aws_vpc_security_group_ingress_rule.allow_http (expand)&#45;&gt;[root] aws_security_group.terraform_SG (expand)</title>
<path fill="none" stroke="black" d="M749.83,-143.52C702.56,-133.58 643.21,-121.1 594.22,-110.81"/>
<polygon fill="black" stroke="black" points="594.96,-107.39 584.46,-108.75 593.52,-114.24 594.96,-107.39"/>
</g>
<!-- [root] aws_vpc_security_group_ingress_rule.allow_https (expand) -->
<g id="node6" class="node">
<title>[root] aws_vpc_security_group_ingress_rule.allow_https (expand)</title>
<polygon fill="none" stroke="black" points="1284.25,-180 993.75,-180 993.75,-144 1284.25,-144 1284.25,-180"/>
<text text-anchor="middle" x="1139" y="-156.95" font-family="Times New Roman,serif" font-size="14.00">aws_vpc_security_group_ingress_rule.allow_https</text>
</g>
<!-- [root] aws_vpc_security_group_ingress_rule.allow_https (expand)&#45;&gt;[root] aws_security_group.terraform_SG (expand) -->
<g id="edge7" class="edge">
<title>[root] aws_vpc_security_group_ingress_rule.allow_https (expand)&#45;&gt;[root] aws_security_group.terraform_SG (expand)</title>
<path fill="none" stroke="black" d="M993.5,-144.93C990.64,-144.62 987.81,-144.31 985,-144 857.72,-130.02 711.63,-114.07 613.34,-103.35"/>
<polygon fill="black" stroke="black" points="614.02,-99.9 603.7,-102.3 613.26,-106.86 614.02,-99.9"/>
</g>
<!-- [root] provider[&quot;registry.terraform.io/hashicorp/aws&quot;] (close) -->
<g id="node8" class="node">
<title>[root] provider[&quot;registry.terraform.io/hashicorp/aws&quot;] (close)</title>
<ellipse fill="none" stroke="black" cx="666" cy="-234" rx="238.16" ry="18"/>
<text text-anchor="middle" x="666" y="-228.95" font-family="Times New Roman,serif" font-size="14.00">[root] provider[&quot;registry.terraform.io/hashicorp/aws&quot;] (close)</text>
</g>
<!-- [root] provider[&quot;registry.terraform.io/hashicorp/aws&quot;] (close)&#45;&gt;[root] aws_network_interface_sg_attachment.sg_attachment (expand) -->
<g id="edge8" class="edge">
<title>[root] provider[&quot;registry.terraform.io/hashicorp/aws&quot;] (close)&#45;&gt;[root] aws_network_interface_sg_attachment.sg_attachment (expand)</title>
<path fill="none" stroke="black" d="M554.17,-217.68C477.59,-207.19 375.49,-193.2 293.72,-182"/>
<polygon fill="black" stroke="black" points="294.2,-178.54 283.82,-180.65 293.25,-185.47 294.2,-178.54"/>
</g>
<!-- [root] provider[&quot;registry.terraform.io/hashicorp/aws&quot;] (close)&#45;&gt;[root] aws_vpc_security_group_egress_rule.allow_all_traffic_ipv4 (expand) -->
<g id="edge9" class="edge">
<title>[root] provider[&quot;registry.terraform.io/hashicorp/aws&quot;] (close)&#45;&gt;[root] aws_vpc_security_group_egress_rule.allow_all_traffic_ipv4 (expand)</title>
<path fill="none" stroke="black" d="M625.39,-215.88C603.25,-206.54 575.61,-194.88 551.92,-184.89"/>
<polygon fill="black" stroke="black" points="553.31,-181.68 542.74,-181.02 550.59,-188.13 553.31,-181.68"/>
</g>
<!-- [root] provider[&quot;registry.terraform.io/hashicorp/aws&quot;] (close)&#45;&gt;[root] aws_vpc_security_group_ingress_rule.allow_http (expand) -->
<g id="edge10" class="edge">
<title>[root] provider[&quot;registry.terraform.io/hashicorp/aws&quot;] (close)&#45;&gt;[root] aws_vpc_security_group_ingress_rule.allow_http (expand)</title>
<path fill="none" stroke="black" d="M706.85,-215.88C729.23,-206.5 757.19,-194.78 781.09,-184.76"/>
<polygon fill="black" stroke="black" points="782.14,-188.11 790.01,-181.02 779.44,-181.66 782.14,-188.11"/>
</g>
<!-- [root] provider[&quot;registry.terraform.io/hashicorp/aws&quot;] (close)&#45;&gt;[root] aws_vpc_security_group_ingress_rule.allow_https (expand) -->
<g id="edge11" class="edge">
<title>[root] provider[&quot;registry.terraform.io/hashicorp/aws&quot;] (close)&#45;&gt;[root] aws_vpc_security_group_ingress_rule.allow_https (expand)</title>
<path fill="none" stroke="black" d="M771.27,-217.42C841.7,-207 934.84,-193.21 1009.77,-182.13"/>
<polygon fill="black" stroke="black" points="1010.28,-185.59 1019.66,-180.66 1009.26,-178.66 1010.28,-185.59"/>
</g>
<!-- [root] root -->
<g id="node9" class="node">
<title>[root] root</title>
<ellipse fill="none" stroke="black" cx="666" cy="-306" rx="49.3" ry="18"/>
<text text-anchor="middle" x="666" y="-300.95" font-family="Times New Roman,serif" font-size="14.00">[root] root</text>
</g>
<!-- [root] root&#45;&gt;[root] provider[&quot;registry.terraform.io/hashicorp/aws&quot;] (close) -->
<g id="edge12" class="edge">
<title>[root] root&#45;&gt;[root] provider[&quot;registry.terraform.io/hashicorp/aws&quot;] (close)</title>
<path fill="none" stroke="black" d="M666,-287.7C666,-280.41 666,-271.73 666,-263.54"/>
<polygon fill="black" stroke="black" points="669.5,-263.62 666,-253.62 662.5,-263.62 669.5,-263.62"/>
</g>
</g>
</svg>
